<svg width="287" height="285" viewBox="0 0 287 285" fill="none" xmlns="http://www.w3.org/2000/svg">
<g style="mix-blend-mode:darken">
<path d="M274.5 142.5C274.5 214.215 215.932 272.5 143.5 272.5C71.0681 272.5 12.5 214.215 12.5 142.5C12.5 70.7852 71.0681 12.5 143.5 12.5C215.932 12.5 274.5 70.7852 274.5 142.5Z" fill="#F1AA18"/>
<path d="M274.5 142.5C274.5 214.215 215.932 272.5 143.5 272.5C71.0681 272.5 12.5 214.215 12.5 142.5C12.5 70.7852 71.0681 12.5 143.5 12.5C215.932 12.5 274.5 70.7852 274.5 142.5Z" stroke="#024D9A" stroke-width="25"/>
</g>
<path d="M80.95 192.3C78.85 192.3 77.4 189.9 76.6 185.1C75.9 180.2 75.3 171.6 74.8 159.3L74.35 148.35C74.15 144.55 73.45 138.7 72.25 130.8C72.15 129.8 71.75 126.75 71.05 121.65C70.35 116.55 70 112.05 70 108.15C70 107.55 70.3 106.8 70.9 105.9C71.5 104.9 72.25 104.4 73.15 104.4C74.45 104.4 75.3 105 75.7 106.2C76.2 107.4 76.5 108.6 76.6 109.8C76.8 110.9 76.9 111.6 76.9 111.9C77.5 113.6 77.95 115.95 78.25 118.95C78.55 121.85 78.8 124.95 79 128.25C79.4 134.75 79.8 139.4 80.2 142.2L84.85 135.6C91.35 126 97.2 118.3 102.4 112.5C107.7 106.7 112.85 103.9 117.85 104.1C118.25 104.5 118.45 105 118.45 105.6C118.45 106.6 117.95 107.75 116.95 109.05C115.95 110.35 114.45 112.05 112.45 114.15L109.3 117.45C108.2 118.75 104.85 122.45 99.25 128.55C95.35 132.65 92.15 136.15 89.65 139.05C87.15 141.95 85.25 144.6 83.95 147C88.35 153.1 93.55 158.5 99.55 163.2C105.65 167.9 113.6 173.45 123.4 179.85L127.9 182.7C129.7 183.4 131.1 184.35 132.1 185.55C133.2 186.65 133.75 187.8 133.75 189C133.75 189.6 133.6 190.2 133.3 190.8C132.6 192 131.75 192.6 130.75 192.6C129.65 192.6 127.7 191.9 124.9 190.5L116.8 184.8C108 179 100.5 173.6 94.3 168.6C88.1 163.6 83.8 158.85 81.4 154.35L82.3 165.6C83.2 175.9 83.65 182.8 83.65 186.3C83.65 188.8 83.45 190.45 83.05 191.25C82.65 191.95 81.95 192.3 80.95 192.3ZM210.153 130.2C210.153 134.5 210.353 138.7 210.753 142.8C211.253 146.8 212.003 152.45 213.003 159.75C214.903 172.05 215.853 181.85 215.853 189.15C215.853 190.65 215.553 191.55 214.953 191.85C214.353 192.15 213.653 192.3 212.853 192.3C212.053 192.3 211.503 192.3 211.203 192.3C209.803 192.3 208.703 192.15 207.903 191.85C207.103 191.45 206.453 190.55 205.953 189.15L202.803 148.35C202.503 144.25 202.103 136 201.603 123.6C197.303 128.6 193.053 132.4 188.853 135C184.653 137.5 180.353 138.75 175.953 138.75C169.653 138.75 163.353 134.3 157.053 125.4C157.353 126.9 157.503 128.9 157.503 131.4C157.503 133.9 157.503 135.35 157.503 135.75L157.353 184.8C157.353 185.8 156.803 186.6 155.703 187.2C154.703 187.7 153.653 187.95 152.553 187.95C151.153 187.95 150.153 187.45 149.553 186.45C149.053 185.35 148.653 183.9 148.353 182.1V161.1C148.353 157.9 148.453 154.3 148.653 150.3C148.853 146.3 149.003 143.5 149.103 141.9C149.603 134.9 149.853 128.55 149.853 122.85C149.853 121.15 149.553 119.55 148.953 118.05C148.353 116.45 147.453 114.7 146.253 112.8C145.053 110.9 144.153 109.25 143.553 107.85C143.053 106.45 142.803 104.95 142.803 103.35C142.803 101.45 143.753 100.5 145.653 100.5C148.653 100.5 151.103 101.6 153.003 103.8C154.903 105.9 156.953 109.1 159.153 113.4C161.053 116.9 162.703 119.65 164.103 121.65C165.503 123.65 167.303 125.4 169.503 126.9C171.703 128.3 174.353 129 177.453 129C181.953 129.2 185.653 128.35 188.553 126.45C191.453 124.45 193.653 122.05 195.153 119.25C196.653 116.45 198.103 113.05 199.503 109.05C200.703 105.75 201.753 103.45 202.653 102.15C203.553 100.75 204.653 100.2 205.953 100.5C208.953 100.3 210.453 103.05 210.453 108.75C210.453 113.55 210.403 117.1 210.303 119.4L210.153 130.2Z" fill="#D80813"/>
</svg>
