<svg width="17" height="20" viewBox="0 0 17 20" fill="none" xmlns="http://www.w3.org/2000/svg">
<path d="M12.5453 4.5C12.5453 6.98528 10.5306 9.00003 8.04529 9.00003C5.56001 9.00003 3.54529 6.98528 3.54529 4.5C3.54529 2.01471 5.56001 0 8.04529 0C10.3753 0 12.2916 1.77074 12.5221 4.0399C12.5374 4.19117 12.5453 4.34467 12.5453 4.5Z" fill="#217EFD"/>
<path d="M0.151829 16.3791C1.13466 13.5372 3.5002 9.97253 8.04532 9.97253C12.5904 9.97253 14.956 13.5372 15.9388 16.3791C16.2713 17.3406 16.0339 18.2586 15.4578 18.9224C14.8903 19.5764 14.008 19.9725 13.0453 19.9725H3.04532C2.08259 19.9725 1.20034 19.5764 0.632819 18.9224C0.0567189 18.2586 -0.180701 17.3406 0.151829 16.3791Z" fill="#217EFD"/>
</svg>
